<?xml version="1.0" standalone="no"?>
<!DOCTYPE svg PUBLIC "-//W3C//DTD SVG 20010904//EN"
 "http://www.w3.org/TR/2001/REC-SVG-20010904/DTD/svg10.dtd">
<svg version="1.0" xmlns="http://www.w3.org/2000/svg"
 width="1184.000000pt" height="1184.000000pt" viewBox="0 0 1184.000000 1184.000000"
 preserveAspectRatio="xMidYMid meet">
<metadata>
Created by potrace 1.11, written by Peter Selinger 2001-2013
</metadata>
<g transform="translate(0.000000,1184.000000) scale(0.100000,-0.100000)"
fill="#000000" stroke="none">
<path d="M5878 11835 c-2 -3 -13 -6 -24 -8 -10 -1 -39 -13 -64 -25 -43 -21
-60 -34 -160 -122 -25 -22 -67 -59 -94 -83 -27 -23 -60 -51 -72 -62 -12 -11
-43 -38 -69 -60 -25 -21 -57 -48 -69 -60 -12 -11 -44 -39 -72 -62 -27 -23 -58
-50 -70 -60 -12 -10 -52 -45 -89 -78 -66 -58 -105 -92 -134 -117 -58 -49 -115
-98 -166 -144 -33 -29 -71 -62 -85 -74 -14 -12 -47 -40 -74 -63 -27 -23 -63
-55 -81 -72 -18 -16 -55 -48 -81 -70 -101 -83 -153 -141 -181 -200 -94 -204
58 -444 282 -446 91 -1 164 27 235 90 22 20 56 50 76 66 19 17 53 46 74 65 21
19 55 49 77 66 21 18 52 45 69 60 17 16 52 47 78 69 26 21 58 48 70 60 13 11
51 45 86 75 35 30 73 63 84 73 47 41 75 65 141 122 39 33 72 62 75 65 3 3 36
32 75 65 38 33 76 67 85 75 9 8 27 24 41 35 13 12 40 35 60 53 l36 32 84 -73
c46 -39 93 -81 104 -92 11 -11 45 -40 75 -65 30 -25 62 -52 70 -60 25 -23 77
-69 160 -140 41 -35 80 -69 86 -75 6 -6 35 -31 64 -56 29 -24 63 -53 75 -64
56 -50 161 -143 193 -170 20 -16 76 -66 125 -109 50 -43 104 -91 120 -105 17
-14 40 -35 53 -46 12 -12 44 -39 70 -60 25 -22 61 -53 79 -70 18 -16 59 -52
91 -80 32 -27 92 -80 133 -116 42 -36 87 -74 99 -85 13 -10 42 -36 64 -56 22
-21 61 -55 86 -75 24 -21 57 -49 72 -63 15 -14 49 -43 74 -65 26 -22 58 -49
70 -60 12 -11 51 -45 85 -75 35 -30 77 -68 95 -84 17 -16 51 -45 75 -65 25
-20 54 -45 66 -56 43 -39 153 -135 320 -279 32 -28 66 -58 75 -66 8 -8 44 -40
80 -70 35 -30 71 -62 80 -70 9 -8 47 -42 85 -75 38 -33 73 -64 79 -70 7 -5 41
-35 76 -65 36 -30 67 -57 70 -61 3 -3 39 -35 80 -70 41 -35 85 -73 96 -84 12
-11 46 -40 75 -65 45 -37 98 -85 164 -145 7 -5 33 -28 59 -50 27 -22 58 -49
71 -60 12 -11 53 -47 91 -80 38 -33 78 -69 89 -80 21 -20 21 -26 20 -638 0
-345 4 -617 9 -617 5 0 4 -6 -1 -12 -10 -16 -10 -98 0 -115 5 -7 4 -13 0 -13
-8 0 -9 -66 -3 -95 1 -5 2 -12 0 -15 -5 -16 -4 -170 2 -170 4 0 4 -10 0 -22
-9 -27 -8 -70 2 -86 3 -6 3 -13 -2 -16 -5 -3 -7 -20 -5 -38 2 -18 4 -37 4 -43
0 -5 -2 -25 -4 -43 -2 -18 0 -35 5 -38 5 -3 4 -13 -1 -22 -5 -9 -5 -26 0 -40
5 -13 6 -21 1 -19 -4 3 -6 -38 -5 -91 1 -54 3 -97 3 -97 1 0 3 -16 4 -35 10
-159 159 -292 319 -285 54 3 97 9 105 15 1 2 5 3 10 4 37 8 132 84 132 105 0
5 6 11 13 14 8 3 23 35 35 71 l22 67 -2 1162 c-1 639 -6 1186 -10 1216 -19
122 -79 236 -168 321 -41 39 -123 112 -193 173 -12 10 -33 28 -47 40 -14 12
-57 49 -95 82 -38 33 -82 71 -96 85 -15 14 -44 39 -65 56 -22 18 -55 47 -75
65 -19 19 -60 54 -89 79 -30 25 -62 52 -70 60 -17 16 -35 31 -160 140 -41 36
-80 70 -86 75 -22 19 -152 133 -199 173 -11 10 -61 53 -111 97 -160 141 -217
191 -308 268 -26 23 -65 58 -86 77 -21 19 -62 55 -91 80 -29 25 -92 79 -139
120 -48 41 -113 98 -146 127 -32 28 -72 63 -89 78 -16 14 -52 45 -78 68 -27
23 -59 51 -71 62 -13 11 -54 47 -92 80 -37 33 -89 78 -114 100 -25 22 -76 67
-115 100 -38 33 -85 74 -104 90 -66 59 -151 133 -441 385 -35 30 -68 60 -74
65 -6 6 -45 40 -86 75 -92 80 -136 118 -168 148 -14 12 -46 40 -72 62 -26 22
-58 50 -71 62 -14 13 -51 46 -83 73 -33 28 -71 61 -86 75 -16 14 -52 45 -81
70 -62 52 -149 129 -165 144 -6 6 -35 31 -64 56 -29 25 -58 50 -64 56 -6 6
-36 27 -66 47 -30 20 -61 42 -67 47 -7 6 -13 8 -13 5 0 -3 -9 -1 -21 6 -20 10
-153 22 -161 14z"/>
<path d="M4057 10184 c-1 -1 -19 -5 -41 -8 -58 -9 -133 -51 -177 -98 -40 -43
-82 -118 -85 -150 -1 -10 -3 -20 -4 -23 -1 -3 -3 -24 -4 -47 -4 -82 27 -160
88 -225 21 -24 45 -43 53 -43 7 0 13 -4 13 -9 0 -9 45 -31 71 -34 8 -2 19 -5
24 -8 10 -6 116 -3 145 3 108 24 220 136 246 248 34 145 -42 302 -176 362 -38
17 -145 40 -153 32z"/>
<path d="M3416 9714 c-42 -15 -102 -50 -126 -74 -16 -15 -90 -80 -126 -111
-11 -8 -59 -51 -109 -94 -49 -44 -98 -86 -109 -95 -10 -8 -23 -20 -30 -26 -6
-5 -67 -59 -136 -119 -69 -59 -135 -118 -147 -129 -12 -12 -30 -28 -39 -36
-43 -35 -114 -97 -174 -150 -36 -31 -108 -94 -160 -140 -52 -45 -118 -103
-147 -129 -28 -25 -63 -55 -76 -66 -25 -21 -145 -125 -183 -160 -12 -11 -33
-29 -46 -39 -24 -20 -160 -138 -168 -146 -3 -3 -39 -34 -80 -69 -135 -116
-183 -173 -228 -269 -14 -31 -27 -61 -28 -67 -2 -5 -7 -35 -13 -65 -11 -56 -8
-7036 3 -7110 39 -264 119 -410 281 -514 75 -48 160 -77 274 -93 24 -3 1889
-6 4145 -7 3995 -1 4103 -1 4171 18 212 57 352 217 382 438 9 62 10 3901 1
3938 -3 14 -9 34 -12 45 -4 11 -8 25 -9 30 -2 14 -25 42 -73 90 -74 74 -174
101 -296 81 -27 -5 -48 -12 -48 -16 0 -4 -14 -14 -32 -21 -43 -18 -91 -66
-119 -119 -13 -25 -24 -48 -25 -52 -1 -5 -2 -9 -3 -10 -11 -14 -13 -298 -14
-1918 0 -1247 -4 -1867 -11 -1872 -5 -4 -18 -2 -27 3 -11 6 -20 5 -24 -1 -4
-6 -12 -7 -23 -1 -9 5 -26 5 -39 0 -14 -5 -23 -5 -23 1 0 6 -10 6 -26 0 -14
-6 -23 -7 -21 -2 3 4 -8 7 -24 7 -16 0 -29 -3 -29 -7 0 -4 -10 -4 -22 0 -24 9
-57 8 -80 0 -7 -3 -22 -2 -33 2 -11 4 -28 3 -37 -2 -10 -5 -18 -5 -18 0 0 8
-69 7 -77 -2 -3 -3 -15 -1 -27 4 -13 4 -29 4 -39 -1 -10 -6 -17 -6 -17 -1 0 5
-17 6 -40 2 -22 -4 -43 -4 -45 1 -3 4 -19 4 -35 -1 -18 -5 -30 -5 -30 0 0 6
-10 6 -25 0 -14 -5 -25 -6 -25 -2 0 4 -13 7 -30 7 -16 0 -30 -3 -30 -7 0 -4
-11 -3 -25 2 -16 6 -25 6 -25 0 0 -6 -9 -6 -23 -1 -14 5 -30 5 -40 0 -11 -7
-17 -6 -17 0 0 7 -8 7 -25 1 -14 -5 -25 -6 -25 -2 0 4 -13 7 -30 7 -16 0 -30
-3 -30 -7 0 -4 -11 -3 -25 2 -16 6 -25 6 -25 0 0 -6 -9 -6 -25 0 -15 6 -26 6
-30 -1 -4 -5 -12 -6 -18 -2 -13 8 -86 8 -94 -1 -3 -2 -15 -1 -27 4 -13 4 -29
4 -39 -1 -9 -6 -17 -6 -17 -1 0 4 -1469 8 -3280 8 -1805 -1 -3286 1 -3293 4
-7 3 -14 12 -16 20 -3 8 -5 753 -6 1655 -1 903 -5 1646 -9 1653 -4 7 -4 12 1
12 4 0 7 93 6 207 -2 115 -3 214 -3 221 0 12 0 150 0 177 0 8 0 35 0 60 0 25
0 52 0 60 0 8 0 35 0 60 0 25 0 52 0 60 0 59 0 137 0 148 0 6 1 30 3 52 2 22
-1 46 -6 53 -6 7 -6 12 0 12 5 0 7 24 5 53 -4 64 -4 61 0 120 2 26 -1 47 -5
47 -5 0 -5 5 -1 12 9 14 9 142 0 157 -4 6 -4 11 1 11 10 0 9 82 0 97 -4 7 -4
14 1 17 9 5 9 47 -1 63 -4 5 -4 13 0 17 9 9 9 66 0 66 -5 0 -5 5 -2 11 11 16
12 69 2 69 -4 0 -5 5 -2 11 11 16 12 69 2 69 -4 0 -5 5 -2 11 11 16 12 69 3
69 -5 0 -5 8 0 18 9 19 8 129 -1 138 -3 4 -2 16 3 28 4 12 4 29 0 37 -5 8 -5
21 0 29 4 7 4 24 -1 37 -5 12 -5 23 -1 23 9 0 6 65 -3 80 -3 6 -2 10 2 10 10
0 9 52 0 67 -3 5 -2 15 3 23 5 8 5 22 -1 32 -5 10 -6 18 -2 18 4 0 8 25 8 55
0 30 -4 55 -8 55 -4 0 -3 8 2 18 5 10 6 24 1 32 -5 8 -5 21 0 30 5 9 4 23 -1
33 -6 9 -6 17 -2 17 4 0 8 13 8 29 0 16 -3 27 -7 24 -5 -2 -4 7 2 21 6 16 6
27 0 31 -6 4 -7 13 -1 24 6 10 6 23 1 31 -5 8 -5 21 0 30 5 9 4 23 -1 33 -7
11 -7 17 0 17 7 0 7 8 1 26 -6 14 -7 23 -2 21 4 -3 7 8 7 24 0 16 -3 29 -7 29
-4 0 -3 11 2 24 5 15 5 27 -2 34 -6 6 -6 12 1 16 7 5 7 15 1 31 -5 14 -6 25
-2 25 4 0 7 34 7 75 0 41 -4 75 -8 75 -4 0 -4 8 1 18 5 9 6 26 2 37 -4 11 -4
29 0 41 5 11 4 28 -1 37 -7 11 -6 17 0 17 5 0 7 8 4 18 -5 20 26 55 117 132
29 25 58 50 64 55 6 6 45 39 86 75 41 36 80 70 86 75 6 6 32 28 58 50 27 22
58 49 70 60 12 11 48 43 81 70 32 28 70 61 86 75 15 14 49 44 76 67 26 22 64
55 83 73 19 17 57 50 84 73 27 23 61 53 76 67 15 14 51 45 81 70 29 25 63 54
75 65 11 11 52 47 90 80 88 76 112 97 149 130 17 15 54 48 84 74 94 80 134
115 165 145 17 15 51 45 76 65 99 80 177 166 200 221 28 65 33 205 9 221 -8 5
-11 9 -6 9 16 0 -37 84 -80 126 -80 76 -215 106 -317 68z"/>
<path d="M2878 6059 c-3 -16 -1 -32 4 -35 5 -3 5 -11 -1 -18 -6 -7 -6 -17 -1
-26 5 -8 6 -18 3 -24 -9 -14 -9 -66 -1 -66 4 0 3 -11 -2 -25 -6 -15 -6 -26 0
-30 6 -4 7 -13 1 -23 -12 -23 0 -50 21 -46 10 1 20 -2 23 -7 3 -4 16 -4 30 1
15 6 27 6 30 0 3 -6 15 -6 30 0 14 5 25 6 25 2 0 -4 25 -7 55 -7 30 0 55 3 55
7 0 4 11 3 25 -2 16 -6 26 -6 31 1 4 7 10 7 16 1 7 -7 19 -7 34 -2 13 5 24 6
24 2 0 -4 25 -7 55 -7 30 0 55 3 55 7 0 4 11 3 25 -2 15 -6 26 -6 30 1 4 5 11
6 17 3 16 -10 108 -11 108 -1 0 4 8 4 17 -2 10 -5 26 -5 39 -1 12 5 24 7 27 4
8 -9 77 -10 77 -2 0 5 8 5 17 -1 10 -5 26 -5 39 -1 12 5 24 7 27 4 8 -9 77
-10 77 -2 0 5 8 5 17 -1 10 -5 26 -5 39 -1 12 5 24 7 27 4 8 -9 77 -10 77 -2
0 5 8 5 17 -1 10 -5 26 -5 41 0 13 5 21 5 18 0 -3 -4 13 -5 34 -1 22 4 43 4
46 -1 2 -4 16 -4 29 1 15 6 27 6 30 0 3 -6 15 -6 30 0 14 5 25 6 25 2 0 -4 25
-7 55 -7 30 0 55 3 55 7 0 4 11 3 24 -2 15 -5 27 -5 34 2 6 6 12 6 16 -1 5 -7
15 -7 31 -1 14 5 25 6 25 2 0 -4 25 -7 55 -7 30 0 55 3 55 7 0 4 11 3 25 -2
15 -6 26 -6 30 1 4 5 11 6 17 3 16 -10 108 -11 108 -1 0 4 8 4 17 -2 10 -5 26
-5 39 -1 12 5 24 7 27 4 8 -9 77 -10 77 -2 0 5 8 5 17 -1 10 -5 26 -5 41 0 13
5 21 6 19 1 -6 -8 195 -8 210 1 5 3 15 2 23 -3 8 -5 21 -5 31 0 9 5 19 6 23 3
9 -9 65 -9 59 -1 -2 5 7 4 21 -2 16 -6 27 -6 31 0 4 6 13 7 23 1 11 -6 24 -6
34 0 10 6 19 6 23 0 4 -7 15 -7 30 -1 14 5 25 6 25 2 0 -4 13 -7 29 -7 16 0
27 4 24 9 -4 5 -1 6 6 2 16 -10 131 -13 131 -3 0 4 8 4 17 -2 10 -5 26 -5 39
-1 12 5 24 7 27 4 8 -9 77 -10 77 -2 0 5 8 5 17 -1 10 -5 26 -5 41 0 13 5 21
5 18 0 -3 -4 13 -5 34 -1 22 4 43 4 46 -1 2 -4 16 -4 29 1 15 6 27 6 30 0 3
-6 15 -6 30 0 14 5 25 6 25 2 0 -4 25 -7 55 -7 30 0 55 3 55 7 0 4 11 3 24 -2
15 -5 27 -5 34 2 6 6 12 6 16 -1 5 -7 15 -7 31 -1 14 5 25 6 25 2 0 -4 25 -7
55 -7 30 0 55 3 55 7 0 4 11 3 25 -2 15 -6 26 -6 30 1 4 5 11 6 17 3 16 -10
108 -11 108 -1 0 4 8 4 17 -2 10 -5 26 -5 39 -1 12 5 24 7 27 4 8 -9 77 -10
77 -2 0 5 8 5 17 -1 10 -5 26 -5 41 0 13 5 21 6 19 1 -6 -8 195 -8 210 1 5 3
15 2 23 -3 8 -5 21 -5 31 0 9 5 19 6 23 3 9 -9 65 -9 59 -1 -2 5 7 4 21 -2 16
-6 27 -6 31 0 4 6 13 7 23 1 11 -6 24 -6 34 0 10 6 19 6 23 0 4 -7 15 -7 30
-1 14 5 25 6 25 2 0 -4 13 -7 29 -7 16 0 27 3 25 7 -3 4 5 4 17 0 12 -5 41 -5
66 -2 24 4 46 3 49 -1 2 -5 16 -4 29 1 14 5 25 6 25 2 0 -4 13 -7 29 -7 16 0
27 3 24 7 -2 5 7 4 21 -2 16 -6 27 -6 31 0 4 6 13 7 23 1 11 -6 24 -6 34 0 10
6 19 6 23 0 4 -7 15 -7 30 -1 14 5 25 6 25 2 0 -4 25 -7 55 -7 30 0 55 3 55 7
0 4 6 5 13 3 21 -9 107 -11 107 -3 0 4 10 4 22 -1 12 -4 37 -5 55 -1 18 5 35
4 38 -1 3 -4 17 -4 30 1 14 5 25 6 25 2 0 -4 13 -7 29 -7 16 0 27 3 24 7 -2 5
7 4 21 -2 16 -6 27 -6 31 0 4 6 13 7 23 1 11 -6 24 -6 34 0 10 6 19 6 23 0 4
-7 15 -7 30 -1 14 5 25 6 25 2 0 -4 25 -7 55 -7 30 0 55 3 55 7 0 4 6 5 13 3
22 -9 107 -11 107 -3 0 4 11 4 23 -1 29 -11 52 1 44 23 -4 9 -2 16 4 16 6 0 6
7 -1 20 -6 11 -7 20 -3 20 4 0 8 25 8 55 0 30 -3 55 -7 55 -4 0 -3 11 2 25 6
15 6 26 0 30 -6 4 -7 13 -1 23 12 23 0 50 -21 46 -10 -1 -20 2 -23 7 -3 4 -16
4 -30 -1 -14 -5 -25 -6 -25 -2 0 4 -13 7 -29 7 -16 0 -27 -3 -24 -7 2 -5 -7
-4 -21 2 -16 6 -27 6 -31 0 -4 -6 -13 -7 -23 -1 -11 6 -24 6 -34 0 -10 -6 -19
-6 -23 0 -4 7 -15 7 -30 1 -14 -5 -25 -6 -25 -2 0 4 -13 7 -29 7 -16 0 -27 -3
-24 -7 2 -5 -7 -4 -21 2 -16 6 -27 6 -31 0 -4 -6 -13 -7 -24 -1 -10 6 -23 6
-31 1 -8 -5 -19 -6 -24 -3 -5 4 -22 7 -36 7 -14 0 -31 -3 -36 -7 -5 -3 -16 -2
-24 3 -7 4 -24 4 -37 -1 -13 -5 -22 -6 -20 -1 3 4 -8 7 -24 7 -16 0 -29 -3
-29 -7 0 -4 -11 -3 -25 2 -15 6 -26 6 -30 0 -4 -6 -13 -7 -23 -1 -11 6 -24 6
-34 0 -10 -6 -19 -6 -23 0 -4 7 -15 7 -31 1 -14 -6 -23 -7 -21 -2 3 4 -8 7
-24 7 -16 0 -29 -3 -29 -7 0 -4 -11 -3 -25 2 -15 6 -26 6 -30 0 -4 -6 -13 -7
-23 -1 -11 6 -24 6 -34 0 -10 -6 -19 -6 -23 0 -4 7 -15 7 -31 1 -14 -6 -23 -7
-21 -2 3 4 -8 7 -24 7 -16 0 -29 -4 -29 -8 0 -5 -5 -5 -11 -2 -16 10 -109 12
-109 2 0 -4 -8 -4 -17 2 -10 5 -26 5 -39 1 -12 -5 -24 -7 -27 -4 -8 9 -77 10
-77 2 0 -5 -8 -5 -17 1 -10 5 -26 5 -39 1 -12 -5 -24 -7 -27 -4 -8 9 -77 10
-77 2 0 -5 -8 -5 -17 1 -10 5 -26 5 -39 1 -12 -5 -24 -7 -27 -4 -8 9 -77 10
-77 2 0 -5 -8 -5 -17 1 -10 5 -26 5 -41 0 -13 -5 -21 -6 -19 -1 3 4 -28 7 -69
7 -41 0 -74 -3 -74 -7 0 -4 -11 -3 -24 2 -15 5 -27 5 -34 -2 -6 -6 -12 -6 -16
1 -5 7 -15 7 -31 1 -14 -5 -25 -6 -25 -2 0 4 -25 7 -55 7 -30 0 -55 -3 -55 -7
0 -4 -11 -3 -24 2 -15 5 -27 5 -34 -2 -6 -6 -12 -6 -16 1 -5 7 -15 7 -31 1
-14 -5 -25 -6 -25 -2 0 4 -25 7 -55 7 -30 0 -55 -3 -55 -7 0 -4 -11 -3 -24 2
-15 5 -27 5 -34 -2 -6 -6 -12 -6 -16 1 -5 7 -15 7 -31 1 -14 -5 -25 -6 -25 -2
0 4 -25 7 -55 7 -30 0 -55 -3 -55 -7 0 -4 -11 -3 -24 2 -15 5 -27 5 -34 -2 -6
-6 -12 -6 -16 1 -5 7 -15 7 -31 1 -14 -5 -25 -6 -25 -2 0 4 -25 7 -55 7 -30 0
-55 -3 -55 -7 0 -4 -10 -4 -23 1 -14 5 -30 5 -40 0 -9 -6 -17 -6 -17 -2 0 4
-41 8 -90 8 -50 0 -90 -4 -90 -8 0 -4 -8 -4 -17 2 -10 5 -26 5 -39 1 -12 -5
-24 -7 -27 -4 -8 9 -77 10 -77 2 0 -5 -8 -5 -17 1 -10 5 -26 5 -39 1 -12 -5
-24 -7 -27 -4 -8 9 -77 10 -77 2 0 -5 -8 -5 -17 1 -10 5 -26 5 -39 1 -12 -5
-24 -7 -27 -4 -8 9 -77 10 -77 2 0 -5 -8 -5 -17 1 -10 5 -26 5 -41 0 -13 -5
-21 -6 -19 -1 3 4 -42 7 -99 7 -57 0 -104 -3 -104 -7 0 -4 -11 -3 -25 2 -15 6
-26 6 -30 0 -4 -6 -13 -7 -23 -1 -11 6 -24 6 -34 0 -10 -6 -19 -6 -23 0 -4 7
-15 7 -31 1 -14 -6 -23 -7 -21 -2 3 4 -8 7 -24 7 -16 0 -29 -3 -29 -7 0 -4
-11 -3 -25 2 -15 6 -26 6 -30 0 -4 -6 -13 -7 -23 -1 -11 6 -24 6 -34 0 -10 -6
-19 -6 -23 0 -4 7 -15 7 -31 1 -14 -6 -23 -7 -21 -2 3 4 -8 7 -24 7 -16 0 -29
-3 -29 -7 0 -4 -11 -3 -25 2 -15 6 -27 6 -30 0 -3 -6 -15 -6 -30 0 -15 6 -27
6 -30 0 -4 -6 -13 -7 -23 -1 -11 6 -24 6 -34 0 -10 -6 -19 -6 -23 0 -4 7 -15
7 -30 1 -14 -5 -25 -6 -25 -2 0 4 -13 7 -29 7 -16 0 -27 -3 -24 -7 2 -5 -7 -4
-21 2 -16 6 -27 6 -31 0 -4 -6 -13 -7 -23 -1 -11 6 -24 6 -34 0 -10 -6 -19 -6
-23 0 -4 7 -15 7 -30 1 -14 -5 -25 -6 -25 -2 0 4 -13 7 -29 7 -16 0 -27 -3
-25 -7 3 -4 -2 -5 -10 -2 -22 8 -246 10 -246 2 0 -4 -11 -3 -25 2 -15 6 -26 6
-30 0 -4 -6 -13 -7 -23 -1 -11 6 -24 6 -34 0 -10 -6 -19 -6 -23 0 -4 7 -15 7
-31 1 -14 -6 -23 -7 -21 -2 3 4 -8 7 -24 7 -16 0 -29 -3 -29 -7 0 -4 -11 -3
-25 2 -15 6 -26 6 -30 0 -4 -6 -13 -7 -23 -1 -11 6 -24 6 -34 0 -10 -6 -19 -6
-23 0 -4 7 -15 7 -31 1 -14 -6 -23 -7 -21 -2 3 4 -8 7 -24 7 -16 0 -29 -3 -29
-7 0 -4 -11 -3 -25 2 -15 6 -27 6 -30 0 -3 -6 -15 -6 -30 0 -15 6 -27 6 -30 0
-4 -6 -13 -7 -24 -1 -10 6 -23 6 -31 1 -8 -5 -18 -6 -24 -3 -14 9 -67 9 -73 0
-2 -4 -12 -3 -23 3 -15 8 -18 5 -22 -21z"/>
<path d="M2881 4463 c-7 -16 -7 -23 0 -23 6 0 6 -7 -1 -20 -8 -14 -8 -20 0
-20 8 0 8 -6 0 -20 -8 -14 -8 -20 0 -20 8 0 8 -6 0 -20 -8 -14 -8 -20 0 -20 8
0 8 -6 0 -20 -8 -14 -8 -20 0 -20 8 0 8 -6 0 -20 -8 -14 -8 -20 0 -20 7 0 8
-6 0 -19 -7 -14 -7 -22 0 -26 8 -5 8 -11 0 -20 -13 -15 -13 -15 165 -16 33 0
69 0 80 1 11 1 26 1 33 1 6 0 32 0 57 0 25 0 53 0 63 0 9 0 37 0 62 0 54 0 51
1 118 -3 28 -2 52 1 52 5 0 5 4 6 9 3 7 -5 47 -7 114 -6 18 1 96 1 125 1 9 0
37 0 62 0 54 0 51 1 118 -3 28 -2 52 1 52 5 0 5 4 6 9 3 7 -5 47 -7 114 -6 18
1 96 1 125 1 9 0 37 0 62 0 54 0 51 1 118 -3 28 -2 52 1 52 5 0 5 4 6 9 3 7
-5 47 -7 114 -6 18 1 96 1 125 1 9 0 37 0 62 0 54 0 51 1 118 -3 28 -2 52 1
52 5 0 5 4 5 10 2 8 -5 230 -9 255 -5 6 2 14 2 19 1 13 -3 129 -3 141 -1 6 1
14 2 19 1 13 -3 129 -3 141 -1 6 1 14 2 19 1 13 -3 129 -3 141 -1 6 1 14 2 19
1 13 -3 129 -3 141 -1 6 1 14 2 19 1 13 -3 129 -3 141 -1 6 1 14 2 19 1 13 -3
129 -3 141 -1 6 1 14 2 19 1 13 -3 129 -3 141 -1 6 1 14 2 19 1 13 -3 129 -3
141 -1 6 1 14 2 19 1 13 -3 129 -3 141 -1 6 1 14 2 19 1 13 -3 129 -3 141 -1
6 1 14 2 19 1 13 -3 129 -3 141 -1 6 1 14 2 19 1 13 -3 129 -3 141 -1 6 1 14
2 19 1 13 -3 129 -3 141 -1 6 1 14 2 19 1 13 -3 129 -3 141 -1 6 1 14 2 19 1
11 -2 128 -3 139 -1 18 3 149 2 152 -2 3 -2 29 -1 59 2 30 3 62 3 72 0 9 -4
37 -3 61 0 24 4 46 4 48 0 2 -3 29 -3 59 0 31 3 56 4 56 1 0 -4 25 -6 55 -6
30 0 55 3 55 6 0 4 17 3 38 -1 20 -3 48 -3 62 0 14 4 34 4 44 0 11 -3 39 -3
63 0 24 4 46 4 48 0 2 -3 29 -3 59 0 31 3 56 4 56 1 0 -4 25 -6 55 -6 30 0 55
3 55 6 0 4 18 3 40 -1 22 -4 42 -4 45 0 3 4 23 4 45 0 21 -4 42 -5 45 -1 3 3
21 4 39 3 23 -2 35 2 39 12 4 9 2 16 -3 16 -6 0 -6 9 -1 23 5 12 5 32 0 45 -5
12 -5 22 1 22 5 0 5 13 0 30 -5 17 -5 32 0 35 5 3 5 16 0 30 -5 14 -6 25 -2
25 4 0 7 11 7 25 0 14 -4 25 -8 25 -5 0 -5 5 -2 10 10 17 -5 31 -23 22 -9 -5
-28 -6 -42 -2 -14 3 -40 3 -58 -1 -17 -4 -34 -3 -37 1 -3 4 -21 4 -40 0 -19
-4 -37 -4 -40 0 -3 4 -22 4 -42 0 -20 -5 -41 -7 -45 -4 -8 5 -201 8 -223 4 -5
-2 -14 -2 -20 0 -23 4 -216 2 -221 -3 -3 -3 -18 -2 -33 3 -16 4 -34 4 -41 0
-6 -4 -26 -4 -44 -1 -31 7 -90 5 -113 -4 -7 -2 -15 0 -18 4 -3 5 -21 5 -40 1
-19 -4 -37 -4 -40 0 -3 4 -21 4 -40 0 -20 -4 -38 -4 -41 1 -3 5 -10 7 -15 4
-9 -6 -115 -8 -207 -3 -28 2 -52 0 -52 -3 0 -4 -15 -4 -33 0 -18 5 -41 5 -51
1 -11 -3 -39 -3 -63 0 -24 4 -46 3 -49 -1 -2 -5 -10 -6 -17 -3 -23 8 -127 9
-127 1 0 -5 -5 -5 -10 -2 -6 4 -45 6 -88 5 -88 -2 -81 -2 -150 2 -28 2 -52 0
-52 -3 0 -4 -15 -4 -33 0 -18 5 -41 5 -51 1 -11 -3 -39 -3 -63 0 -24 4 -46 3
-49 -1 -2 -5 -10 -6 -17 -3 -23 8 -127 9 -127 1 0 -5 -5 -5 -10 -2 -6 4 -45 6
-88 5 -88 -2 -81 -2 -150 2 -28 2 -52 0 -52 -3 0 -4 -15 -4 -33 0 -18 5 -41 5
-51 1 -11 -3 -39 -3 -63 0 -24 4 -46 3 -49 -1 -2 -5 -10 -6 -17 -3 -23 8 -127
9 -127 1 0 -5 -5 -5 -10 -2 -6 4 -45 6 -88 5 -88 -2 -81 -2 -150 2 -28 2 -52
0 -52 -3 0 -4 -15 -4 -33 0 -18 5 -41 5 -51 1 -11 -3 -39 -3 -63 0 -24 4 -46
3 -49 -1 -2 -5 -10 -6 -17 -3 -19 7 -127 10 -127 3 0 -3 -20 -3 -45 1 -25 4
-48 3 -51 -1 -2 -5 -10 -6 -17 -3 -19 7 -127 10 -127 3 0 -3 -20 -3 -45 1 -25
4 -48 3 -51 -2 -3 -4 -10 -6 -15 -2 -12 7 -218 9 -225 2 -3 -3 -21 -2 -40 2
-19 4 -36 4 -39 0 -3 -4 -20 -5 -37 -1 -33 7 -92 5 -115 -4 -7 -2 -15 0 -18 4
-3 5 -21 5 -40 1 -19 -4 -37 -4 -40 0 -3 4 -21 4 -40 0 -19 -4 -37 -4 -40 0
-3 4 -22 4 -42 0 -20 -5 -41 -7 -45 -4 -8 5 -201 8 -223 4 -5 -2 -14 -2 -20 0
-23 4 -216 2 -221 -3 -3 -3 -18 -2 -33 3 -16 4 -34 4 -41 0 -6 -4 -26 -4 -44
-1 -31 7 -90 5 -113 -4 -7 -2 -15 0 -18 4 -3 5 -21 5 -40 1 -19 -4 -37 -4 -40
0 -3 4 -21 4 -40 0 -19 -4 -37 -4 -40 0 -3 4 -21 4 -40 0 -19 -4 -50 -5 -67
-1 -18 4 -48 4 -65 0 -18 -3 -33 -4 -33 0 0 3 -40 6 -90 6 -83 0 -90 -2 -99
-22z"/>
<path d="M2883 2876 c-9 -14 -9 -68 -1 -93 4 -13 3 -23 -2 -23 -5 0 -5 -12 0
-30 5 -17 5 -32 0 -35 -5 -3 -5 -16 0 -30 5 -14 6 -25 2 -25 -4 0 -7 -11 -7
-25 0 -14 3 -25 7 -25 4 0 4 -8 1 -17 -5 -12 -2 -15 9 -10 9 3 19 3 22 0 9
-10 56 -10 56 0 0 4 8 3 18 -2 11 -6 24 -6 35 0 11 7 17 7 17 0 0 -7 8 -7 23
-2 12 5 31 5 42 1 11 -4 28 -3 38 2 10 5 17 5 17 0 0 -5 18 -6 40 -2 22 4 43
4 46 -1 2 -4 16 -4 29 1 14 5 25 6 25 2 0 -4 13 -7 29 -7 16 0 27 3 24 7 -2 5
7 4 21 -2 16 -6 27 -6 31 0 4 6 13 7 23 1 11 -6 24 -6 34 0 10 6 19 6 23 0 4
-7 15 -7 30 -1 14 5 25 6 25 2 0 -4 25 -7 55 -7 30 0 55 3 55 7 0 4 6 5 13 3
23 -9 107 -11 107 -2 0 4 5 5 10 2 14 -9 223 -10 236 -2 6 3 16 2 24 -3 8 -5
21 -5 31 0 9 5 19 6 23 3 9 -9 65 -9 59 -1 -2 5 7 4 21 -2 16 -6 27 -6 31 0 4
6 13 7 24 1 10 -6 23 -6 31 -1 8 5 18 6 24 3 14 -9 116 -9 116 0 0 5 5 5 10 2
14 -8 233 -10 246 -2 6 3 16 2 24 -3 8 -5 21 -5 31 0 9 5 19 6 23 3 9 -9 65
-9 59 -1 -2 5 7 4 21 -2 16 -6 27 -6 31 0 4 6 13 7 24 1 10 -6 23 -6 31 -1 8
5 18 6 24 3 14 -9 116 -9 116 0 0 4 7 4 16 -1 8 -5 36 -6 60 -2 25 4 47 3 50
-1 2 -5 16 -4 29 1 14 5 25 6 25 2 0 -4 13 -7 29 -7 16 0 27 3 24 7 -2 5 7 4
21 -2 16 -6 27 -6 31 0 4 6 13 7 23 1 11 -6 24 -6 34 0 10 6 19 6 23 0 4 -7
15 -7 30 -1 14 5 25 6 25 2 0 -4 25 -7 55 -7 30 0 55 3 55 7 0 4 6 5 13 3 22
-9 107 -11 107 -3 0 4 10 4 23 0 23 -9 56 -8 79 0 7 3 22 2 33 -2 11 -4 28 -3
38 2 9 5 17 5 17 0 0 -8 69 -7 77 2 3 3 15 1 27 -4 13 -4 29 -4 39 1 10 6 17
6 17 1 0 -5 17 -6 40 -2 22 4 43 4 46 -1 2 -4 16 -4 29 1 15 6 27 6 30 0 3 -6
15 -6 30 0 14 5 25 6 25 2 0 -4 25 -7 55 -7 30 0 55 3 55 7 0 4 11 3 24 -2 15
-5 27 -5 34 2 6 6 12 6 16 -1 5 -7 15 -7 31 -1 14 5 25 6 25 2 0 -4 25 -7 55
-7 30 0 55 3 55 7 0 4 11 3 25 -2 15 -6 26 -6 30 1 4 5 12 6 18 2 13 -8 86 -8
94 1 3 2 15 1 27 -4 13 -4 29 -4 39 1 9 6 17 6 17 1 0 -8 69 -7 77 2 3 3 15 1
27 -4 13 -4 29 -4 39 1 10 6 17 6 17 1 0 -5 17 -6 40 -2 22 4 43 4 46 -1 2 -4
16 -4 29 1 14 5 25 6 25 2 0 -4 13 -7 29 -7 16 0 27 3 24 7 -2 5 7 4 21 -2 16
-6 27 -6 31 0 4 6 13 7 23 1 11 -6 24 -6 34 0 10 6 19 6 23 0 4 -7 15 -7 30
-1 14 5 25 6 25 2 0 -4 25 -7 55 -7 30 0 55 3 55 7 0 4 6 5 13 3 23 -9 107
-11 107 -2 0 4 5 5 10 2 14 -9 228 -10 236 -2 4 3 14 2 23 -3 10 -5 23 -5 31
0 8 5 18 6 24 3 14 -9 65 -9 59 -1 -2 5 7 4 21 -2 16 -6 27 -6 31 0 4 6 13 7
24 1 10 -6 23 -6 31 -1 8 5 18 6 24 3 14 -9 116 -9 116 0 0 5 5 5 10 2 14 -8
233 -10 246 -2 6 3 16 2 24 -3 8 -5 21 -5 31 0 9 5 19 6 23 3 9 -9 65 -9 59
-1 -2 5 7 4 21 -2 16 -6 27 -6 31 0 4 6 13 7 24 1 10 -6 23 -6 31 -1 8 5 19 6
24 3 13 -8 59 -8 72 0 5 3 16 2 24 -3 8 -5 22 -5 32 1 10 5 18 6 18 1 0 -14
48 -2 54 14 3 8 1 14 -4 14 -6 0 -6 9 -1 23 5 12 5 32 0 45 -5 12 -5 22 1 22
5 0 5 13 0 30 -5 17 -5 32 0 35 5 3 5 16 0 30 -5 14 -6 25 -2 25 4 0 7 11 7
25 0 14 -3 25 -7 25 -4 0 -4 8 -1 17 5 12 2 15 -10 10 -9 -3 -18 -3 -21 1 -5
9 -48 8 -63 -1 -5 -4 -13 -4 -17 0 -9 9 -96 9 -96 0 0 -5 -5 -5 -11 -2 -16 11
-69 12 -69 2 0 -4 -5 -5 -11 -2 -16 11 -69 12 -69 2 0 -4 -5 -5 -11 -2 -16 11
-69 12 -69 2 0 -4 -5 -5 -11 -2 -16 11 -69 12 -69 2 0 -4 -5 -5 -11 -2 -16 11
-69 12 -69 2 0 -4 -5 -5 -11 -2 -16 11 -69 12 -69 2 0 -4 -5 -5 -11 -2 -16 11
-69 12 -69 2 0 -4 -5 -5 -11 -2 -16 11 -69 12 -69 2 0 -4 -5 -5 -11 -2 -16 11
-69 12 -69 2 0 -4 -5 -5 -11 -2 -16 11 -69 12 -69 2 0 -4 -5 -5 -11 -2 -16 11
-69 12 -69 2 0 -4 -5 -5 -11 -2 -16 11 -69 12 -69 2 0 -4 -5 -5 -11 -2 -13 9
-69 13 -69 6 0 -8 -69 -6 -76 2 -3 3 -17 2 -30 -3 -14 -6 -24 -6 -24 0 0 5
-12 5 -28 1 -15 -5 -37 -5 -49 0 -13 5 -25 4 -28 -1 -3 -6 -15 -6 -30 0 -15 6
-27 6 -30 0 -4 -6 -13 -7 -23 -1 -11 6 -24 6 -34 0 -10 -6 -19 -6 -23 0 -3 6
-15 7 -29 1 -12 -4 -29 -4 -36 0 -8 5 -22 4 -31 -1 -11 -6 -20 -5 -24 1 -4 6
-15 6 -30 0 -15 -6 -25 -6 -25 0 0 5 -12 5 -30 0 -16 -5 -30 -6 -30 -2 0 4
-13 7 -29 7 -16 0 -27 -3 -24 -7 2 -5 -7 -4 -21 2 -15 5 -28 6 -31 0 -3 -6
-15 -6 -30 0 -15 6 -27 6 -30 0 -4 -6 -13 -7 -23 -1 -11 6 -24 6 -34 0 -10 -6
-19 -6 -23 0 -3 6 -15 7 -29 1 -12 -4 -29 -4 -36 0 -8 5 -22 4 -31 -1 -11 -6
-20 -5 -24 1 -4 6 -15 6 -30 0 -15 -6 -25 -6 -25 0 0 5 -12 5 -30 0 -16 -5
-30 -6 -30 -2 0 4 -13 7 -29 7 -16 0 -27 -3 -24 -7 2 -5 -7 -4 -21 2 -15 5
-28 6 -31 0 -3 -6 -15 -6 -30 0 -15 6 -27 6 -30 0 -4 -6 -13 -7 -23 -1 -11 6
-24 6 -34 0 -10 -6 -19 -6 -23 0 -4 7 -15 7 -31 1 -14 -6 -23 -7 -21 -2 3 4
-48 7 -114 7 -65 0 -119 -3 -119 -7 0 -4 -11 -3 -25 2 -14 5 -27 5 -30 0 -3
-5 -18 -5 -35 0 -18 5 -30 5 -30 0 0 -6 -10 -6 -25 0 -15 6 -26 6 -30 0 -4 -6
-13 -7 -24 -1 -10 6 -23 6 -31 1 -8 -5 -21 -5 -30 0 -9 5 -23 4 -32 -1 -10 -6
-19 -6 -23 0 -4 7 -15 7 -31 1 -14 -6 -23 -7 -21 -2 3 4 -21 7 -54 7 -32 0
-59 -3 -59 -7 0 -4 -11 -3 -25 2 -14 5 -27 5 -30 0 -3 -5 -18 -5 -35 0 -18 5
-30 5 -30 0 0 -6 -10 -6 -25 0 -15 6 -26 6 -30 0 -4 -6 -13 -7 -24 -1 -10 6
-23 6 -31 1 -8 -5 -21 -5 -30 0 -9 5 -23 4 -32 -1 -10 -6 -19 -6 -23 0 -4 7
-15 7 -31 1 -14 -6 -23 -7 -21 -2 3 4 -35 7 -84 7 -49 0 -89 -4 -89 -8 0 -5
-5 -5 -11 -2 -16 11 -69 12 -69 2 0 -4 -5 -5 -11 -2 -16 11 -69 12 -69 2 0 -4
-5 -5 -11 -2 -16 11 -69 12 -69 2 0 -4 -5 -5 -11 -2 -16 11 -69 12 -69 2 0 -4
-5 -5 -11 -2 -16 11 -69 12 -69 2 0 -4 -5 -5 -11 -2 -16 11 -69 12 -69 2 0 -4
-5 -5 -11 -2 -16 11 -69 12 -69 2 0 -4 -5 -5 -11 -2 -16 11 -69 12 -69 2 0 -4
-5 -5 -11 -2 -16 11 -69 12 -69 2 0 -4 -5 -5 -11 -2 -16 11 -69 12 -69 2 0 -4
-5 -5 -11 -2 -16 11 -69 12 -69 2 0 -4 -5 -5 -11 -2 -16 11 -69 12 -69 2 0 -4
-5 -5 -11 -2 -16 11 -69 12 -69 2 0 -4 -5 -5 -11 -2 -16 11 -69 12 -69 2 0 -4
-5 -5 -11 -2 -13 9 -69 13 -69 6 0 -8 -69 -6 -76 2 -3 3 -17 2 -30 -3 -14 -6
-26 -6 -29 0 -3 6 -15 6 -30 0 -15 -6 -27 -6 -30 0 -3 6 -15 6 -30 0 -14 -5
-25 -6 -25 -2 0 8 -85 6 -107 -2 -7 -3 -15 -1 -18 4 -3 6 -15 6 -30 0 -15 -6
-27 -6 -30 0 -3 6 -15 6 -30 0 -14 -5 -25 -6 -25 -2 0 8 -85 6 -107 -3 -7 -2
-13 -1 -13 3 0 4 -25 7 -55 7 -30 0 -55 -3 -55 -7 0 -4 -13 -3 -30 2 -18 5
-30 5 -30 0 0 -6 -10 -6 -24 0 -15 5 -27 5 -34 -2 -6 -6 -12 -6 -16 1 -4 7
-15 7 -30 1 -13 -5 -27 -6 -30 -3 -9 10 -67 9 -73 -1z"/>
</g>
</svg>
